<svg width="100" height="96" viewBox="0 0 100 96" fill="none" xmlns="http://www.w3.org/2000/svg">
<path d="M26.0938 90.3438L27.9492 91.5352C34.0039 94.3086 40.7617 95.8711 47.8711 95.8711C55.9375 95.8711 63.5156 93.8789 70.1758 90.3633L26.0938 90.3438Z" fill="#6B433C"/>
<path d="M16.7773 84.3867L18.0273 85.1875H77.9492C88.7891 76.418 95.7031 63.0195 95.7031 48C95.7031 21.5742 74.2773 0.148438 47.8516 0.148438C40.7422 0.148438 34.0039 1.69141 27.9297 4.48438L7.8125 74.2109C10.3125 78.0195 13.3398 81.4375 16.7773 84.3867Z" fill="#FFDA00"/>
<path d="M69.082 4.48438H27.9297C11.4453 12.043 0 28.6836 0 48C0 52.7656 0.703125 57.3555 1.99219 61.7109H34.0625V56.9844C34.0625 55.4805 35.2344 54.2109 36.7188 54.0742L36.9922 54.0547V47.4726C36.9922 45.1094 38.9258 43.1758 41.2891 43.1758H75.7617V11.1445C75.7617 7.47266 72.7734 4.48438 69.082 4.48438Z" fill="#182F4D"/>
<path d="M4.10156 28.6055C6.09375 30.1484 7.89062 32.0625 9.47266 34.3867C19.1992 48.5859 28.418 45.8516 37.5781 45.3633C38.3203 44.0547 39.707 43.1758 41.3086 43.1758H71.4844V15.4414H12.793C9.21875 19.2891 6.25 23.7422 4.10156 28.6055Z" fill="#B8F5FF"/>
<path d="M18.9063 15.4414H12.793C9.21875 19.2891 6.25 23.7422 4.10156 28.6055C6.09375 30.1484 7.89062 32.0625 9.47266 34.3867C12.6758 39.0547 15.8203 41.8867 18.9258 43.5859V15.4414H18.9063Z" fill="#63E2F7"/>
<path d="M69.082 8.78125H20.4492C17.5195 10.832 14.8437 13.1953 12.4414 15.832H71.4648V11.1445C71.4648 9.85547 70.3711 8.78125 69.082 8.78125Z" fill="#176496"/>
<path d="M18.9063 13.1758C18.9063 11.7891 19.2188 10.4609 19.7656 9.26953C17.1094 11.1836 14.6484 13.3906 12.4219 15.832H18.9063V13.1758Z" fill="#0A456E"/>
<path d="M14.4141 13.7617H48.9844C49.7852 13.7617 50.4492 13.0977 50.4492 12.2969C50.4492 11.4961 49.7852 10.832 48.9844 10.832H17.7148C16.5625 11.7695 15.4688 12.7461 14.4141 13.7617Z" fill="white"/>
<path d="M65.918 13.7617H64.0039C63.2031 13.7617 62.5391 13.0977 62.5391 12.2969C62.5391 11.4961 63.2031 10.832 64.0039 10.832H65.918C66.7187 10.832 67.3828 11.4961 67.3828 12.2969C67.3828 13.0977 66.7383 13.7617 65.918 13.7617Z" fill="#8ACE49"/>
<path d="M59.2969 13.7617H57.3828C56.582 13.7617 55.918 13.0977 55.918 12.2969C55.918 11.4961 56.582 10.832 57.3828 10.832H59.2969C60.0977 10.832 60.7617 11.4961 60.7617 12.2969C60.7617 13.0977 60.0977 13.7617 59.2969 13.7617Z" fill="#FB4444"/>
<path d="M9.78516 34.1719C8.10547 31.7109 6.23047 29.7578 4.25781 28.2539C1.52344 34.2695 0 40.9492 0 48C0 52.7656 0.703125 57.3555 1.99219 61.7109H34.0625V56.9844C34.0625 55.4805 35.2344 54.2109 36.7188 54.0742L36.9922 54.0547V47.4727C36.9922 46.5352 37.3047 45.6563 37.8125 44.9531C28.5352 45.4023 19.4922 48.3516 9.78516 34.1719Z" fill="#63E2F7"/>
<path d="M18.9062 43.1563C15.918 41.4766 12.8711 38.7031 9.78516 34.1719C8.10547 31.7109 6.23047 29.7578 4.25781 28.2539C1.52344 34.2695 0 40.9492 0 48C0 52.7656 0.703125 57.3555 1.99219 61.7109H18.9062V43.1563Z" fill="#50C0D9"/>
<path d="M34.0625 88.3125V73.8203H18.5156L17.4414 81.9063C17.3242 82.8438 17.0898 83.6836 16.7969 84.4062C20.1563 87.2773 23.8867 89.6797 27.9492 91.5352H37.207V91.2422H37.0117C35.3906 91.2227 34.0625 89.9141 34.0625 88.3125Z" fill="#9799A6"/>
<path d="M34.0625 88.3125V73.8203H24.4336L24.1016 74.2109C24.1016 74.2109 26.9727 75.7539 26.9727 78.6836C26.9727 81.6133 26.9727 84.8945 26.9727 84.8945C26.9727 84.8945 27.0312 88.918 23.6328 89.3086C25.0195 90.1289 26.4453 90.8711 27.9102 91.5352H37.168V91.2422H36.9727C35.3906 91.2227 34.0625 89.9141 34.0625 88.3125Z" fill="#D2D3D9"/>
<path d="M7.8125 74.2109H34.082V61.3203H1.875C3.22266 65.9297 5.23437 70.2656 7.8125 74.2109Z" fill="white"/>
<path d="M18.9063 65.832V61.3008H1.875C3.20313 65.9297 5.23438 70.2656 7.8125 74.1914H24.1406C21.0547 72.668 18.9063 69.5039 18.9063 65.832Z" fill="#EFEEEF"/>
<path d="M27.6367 70.6367C29.2224 70.6367 30.5078 69.3513 30.5078 67.7656C30.5078 66.18 29.2224 64.8945 27.6367 64.8945C26.0511 64.8945 24.7656 66.18 24.7656 67.7656C24.7656 69.3513 26.0511 70.6367 27.6367 70.6367Z" fill="#D2D3D9"/>
<path d="M92.9297 42.8828H41.2891C38.7695 42.8828 36.6992 44.9531 36.6992 47.4727V54.1914C36.7969 54.1914 36.8945 54.1719 36.9922 54.1719H51.9922C53.5547 54.1719 54.8242 55.4414 54.8242 57.0039V84.8945H97.5C97.5 84.8359 97.5 84.7773 97.5 84.6992V47.4727C97.5195 44.9531 95.4492 42.8828 92.9297 42.8828Z" fill="#043C62"/>
<path d="M71.3476 83.9766C69.0429 81.7305 69.8437 79.2695 70.625 77.8828C70.9375 77.3164 70.7226 76.6133 70.1367 76.3398C67.2461 74.9922 67.7344 72.2383 68.0469 71.2031C68.125 70.9297 68.0859 70.6367 67.9687 70.3828L65.1758 65.0313C65.0976 64.875 65 64.7578 64.8633 64.6602C63.0859 63.3711 63.4375 61.5156 63.8476 60.4609C64.0234 59.9922 63.8672 59.4648 63.4765 59.1719C61.5039 57.7266 61.9726 55.5977 62.3828 54.4844C62.539 54.0742 62.4414 53.5859 62.1094 53.2734C59.8242 51.1836 60.5273 48.957 61.0742 47.9023C61.2695 47.5312 61.25 47.0625 61.0156 46.7305C60.1758 45.5195 60.5273 44.3477 60.9375 43.625C61.0742 43.3906 61.1133 43.1367 61.0742 42.8828H41.2891C38.7695 42.8828 36.6992 44.9531 36.6992 47.4727V54.1914C36.7969 54.1914 36.8945 54.1719 36.9922 54.1719H51.9922C53.5547 54.1719 54.8242 55.4414 54.8242 57.0039V84.8945H71.6797C71.7187 84.5625 71.6015 84.2109 71.3476 83.9766Z" fill="#182F4D"/>
<path d="M41.0938 53.3906V54.1719H51.9922C53.5547 54.1719 54.8242 55.4414 54.8242 57.0039V84.8945H92.2266C92.7148 84.8945 93.125 84.4844 93.125 83.9961V53.3906H41.0938Z" fill="#FB4444"/>
<path d="M41.0938 54.1719H51.9922C53.5547 54.1719 54.8242 55.4414 54.8242 57.0039V84.8945H71.6797C71.7187 84.5625 71.6015 84.2305 71.3476 83.9961C69.0429 81.75 69.8437 79.2891 70.625 77.9023C70.9375 77.3359 70.7226 76.6328 70.1367 76.3594C67.2461 75.0117 67.7344 72.2578 68.0469 71.2227C68.125 70.9492 68.0859 70.6562 67.9687 70.4023L65.1758 65.0508C65.0976 64.8945 65 64.7773 64.8633 64.6797C63.0859 63.3906 63.4375 61.5352 63.8476 60.4805C64.0234 60.0117 63.8672 59.4844 63.4765 59.1914C61.5039 57.7461 61.9726 55.6172 62.3828 54.5039C62.5195 54.1328 62.4609 53.7031 62.207 53.4102H41.1133L41.0938 54.1719Z" fill="#FC3030"/>
<path d="M98.418 84.6797H54.8242V88.293C54.8242 89.8555 53.5547 91.125 51.9922 91.125H51.0742V91.5156H94.7266C97.6367 91.5156 99.9805 89.1719 99.9805 86.2617C100 85.4023 99.2969 84.6797 98.418 84.6797Z" fill="white"/>
<path d="M54.8242 88.3125C54.8242 89.875 53.5547 91.1445 51.9922 91.1445H51.0742V91.5352H72.0117C71.9531 91.3984 71.8555 91.2813 71.7578 91.1641C69.2578 88.8984 70.4688 86.6328 71.4258 85.4805C71.6211 85.2461 71.6992 84.9727 71.6797 84.6992H54.8242V88.3125Z" fill="#EFEEEF"/>
<path d="M92.2266 47.2773H41.9922C41.5039 47.2773 41.0938 47.6875 41.0938 48.1758V53.7812H93.1055V48.1758C93.125 47.668 92.7148 47.2773 92.2266 47.2773Z" fill="#F9584B"/>
<path d="M61.0547 47.9023C61.1523 47.707 61.1914 47.4922 61.1914 47.2773H41.9922C41.5039 47.2773 41.0938 47.6875 41.0938 48.1758V53.7812H62.3828C62.3242 53.5859 62.2266 53.4297 62.0898 53.293C59.8242 51.1836 60.5078 48.9766 61.0547 47.9023Z" fill="#FB4444"/>
<path d="M52.0117 90.0508H37.0117C35.2344 90.0508 33.7891 88.6055 33.7891 86.8281V55.5195C33.7891 53.7422 35.2344 52.2969 37.0117 52.2969H52.0117C53.7891 52.2969 55.2344 53.7422 55.2344 55.5195V86.8281C55.2148 88.6055 53.7891 90.0508 52.0117 90.0508Z" fill="white"/>
<path d="M45.5664 55.5195H47.0508V52.2969H37.0117C35.2344 52.2969 33.7891 53.7422 33.7891 55.5195V86.8281C33.7891 88.6055 35.2344 90.0508 37.0117 90.0508H45.5664C43.7891 90.0508 42.3438 88.6055 42.3438 86.8281V58.7422C42.3438 56.9648 43.7891 55.5195 45.5664 55.5195Z" fill="#EFEEEF"/>
<path d="M39.2773 65.3633H38.7305C37.9297 65.3633 37.2656 64.6992 37.2656 63.8984C37.2656 63.0977 37.9297 62.4336 38.7305 62.4336H39.2773C40.0781 62.4336 40.7422 63.0977 40.7422 63.8984C40.7422 64.7188 40.0977 65.3633 39.2773 65.3633Z" fill="#9799A6"/>
<path d="M39.2773 70.9883H38.7305C37.9297 70.9883 37.2656 70.3242 37.2656 69.5234C37.2656 68.7227 37.9297 68.0586 38.7305 68.0586H39.2773C40.0781 68.0586 40.7422 68.7227 40.7422 69.5234C40.7422 70.3438 40.0977 70.9883 39.2773 70.9883Z" fill="#9799A6"/>
<path d="M39.2773 76.6328H38.7305C37.9297 76.6328 37.2656 75.9688 37.2656 75.168C37.2656 74.3672 37.9297 73.7031 38.7305 73.7031H39.2773C40.0781 73.7031 40.7422 74.3672 40.7422 75.168C40.7422 75.9688 40.0977 76.6328 39.2773 76.6328Z" fill="#9799A6"/>
<path d="M39.2773 82.2578H38.7305C37.9297 82.2578 37.2656 81.5938 37.2656 80.793C37.2656 79.9922 37.9297 79.3281 38.7305 79.3281H39.2773C40.0781 79.3281 40.7422 79.9922 40.7422 80.793C40.7422 81.5938 40.0977 82.2578 39.2773 82.2578Z" fill="#9799A6"/>
<path d="M50.2539 65.3633H43.7891C42.9883 65.3633 42.3242 64.6992 42.3242 63.8984C42.3242 63.0977 42.9883 62.4336 43.7891 62.4336H50.2539C51.0547 62.4336 51.7187 63.0977 51.7187 63.8984C51.7187 64.7188 51.0742 65.3633 50.2539 65.3633Z" fill="#9799A6"/>
<path d="M50.2539 70.9883H43.7891C42.9883 70.9883 42.3242 70.3242 42.3242 69.5234C42.3242 68.7227 42.9883 68.0586 43.7891 68.0586H50.2539C51.0547 68.0586 51.7187 68.7227 51.7187 69.5234C51.7187 70.3438 51.0742 70.9883 50.2539 70.9883Z" fill="#9799A6"/>
<path d="M50.2539 76.6328H43.7891C42.9883 76.6328 42.3242 75.9688 42.3242 75.168C42.3242 74.3672 42.9883 73.7031 43.7891 73.7031H50.2539C51.0547 73.7031 51.7187 74.3672 51.7187 75.168C51.7187 75.9688 51.0742 76.6328 50.2539 76.6328Z" fill="#9799A6"/>
<path d="M50.2539 82.2578H43.7891C42.9883 82.2578 42.3242 81.5938 42.3242 80.793C42.3242 79.9922 42.9883 79.3281 43.7891 79.3281H50.2539C51.0547 79.3281 51.7187 79.9922 51.7187 80.793C51.7187 81.5938 51.0742 82.2578 50.2539 82.2578Z" fill="#9799A6"/>
<path d="M52.0117 50.8516H37.0117C34.4336 50.8516 32.3242 52.9609 32.3242 55.5391V86.8477C32.3242 89.4258 34.4336 91.5352 37.0117 91.5352H52.0117C54.5898 91.5352 56.6992 89.4258 56.6992 86.8477V55.5195C56.6797 52.9414 54.5898 50.8516 52.0117 50.8516ZM53.75 86.8477C53.75 87.8242 52.9688 88.6055 51.9922 88.6055H36.9922C36.0156 88.6055 35.2344 87.8242 35.2344 86.8477V55.5195C35.2344 54.543 36.0156 53.7617 36.9922 53.7617H39.6875C39.8633 53.7617 40 53.8984 40 54.0742C40 55.1094 40.8398 55.9492 41.875 55.9492H47.1094C48.1445 55.9492 48.9844 55.1094 48.9844 54.0742C48.9844 53.8984 49.1211 53.7617 49.2969 53.7617H51.9922C52.9688 53.7617 53.75 54.543 53.75 55.5195V86.8477Z" fill="#167CC1"/>
<path d="M67.1484 77.8047C72.2937 77.8047 76.4648 73.6336 76.4648 68.4883C76.4648 63.343 72.2937 59.1719 67.1484 59.1719C62.0031 59.1719 57.832 63.343 57.832 68.4883C57.832 73.6336 62.0031 77.8047 67.1484 77.8047Z" fill="white"/>
<path d="M70.1563 76.3203C67.2656 74.9727 67.7539 72.2187 68.0664 71.1836C68.1445 70.9102 68.1055 70.6172 67.9883 70.3633L65.1953 65.0117C65.1172 64.8555 65.0195 64.7383 64.8828 64.6406C63.1055 63.3516 63.457 61.4961 63.8672 60.4414C63.9453 60.207 63.9648 59.9727 63.9063 59.7578C60.3516 61.0664 57.832 64.4844 57.832 68.5078C57.832 73.6641 62.0117 77.8242 67.1484 77.8242C68.4375 77.8242 69.668 77.5703 70.7812 77.082C70.6836 76.75 70.4688 76.4766 70.1563 76.3203Z" fill="#EFEEEF"/>
<path d="M70.9961 67.7656L65.7617 64.8164C65.2148 64.5039 64.5312 64.8945 64.5312 65.539V71.4375C64.5312 72.0625 65.2148 72.4726 65.7617 72.1601L70.9961 69.2109C71.543 68.8984 71.543 68.0976 70.9961 67.7656Z" fill="#FB4444"/>
<path d="M42.8711 88.5859H37.0117C36.0352 88.5859 35.2539 87.8047 35.2539 86.8281V55.5195C35.2539 54.543 36.0352 53.7617 37.0117 53.7617H39.707C39.8828 53.7617 40.0195 53.8984 40.0195 54.0742C40.0195 55.1094 40.8594 55.9492 41.8945 55.9492H43.9453C41.875 53.5273 43.5352 51.3789 44.0625 50.832H37.0117C34.4336 50.832 32.3242 52.9414 32.3242 55.5195V86.8281C32.3242 89.4062 34.4336 91.5156 37.0117 91.5156H42.5195C41.4258 90.0117 42.7344 88.7227 42.8711 88.5859Z" fill="#0E62A8"/>
</svg>
