<svg width="101" height="100" viewBox="0 0 101 100" fill="none" xmlns="http://www.w3.org/2000/svg">
<path d="M97.8516 52.1484C97.8516 78.5742 76.4258 100 50 100C23.5742 100 2.14844 78.5742 2.14844 52.1484C2.14844 25.7227 23.5742 4.29688 50 4.29688C76.4258 4.29688 97.8516 25.7227 97.8516 52.1484Z" fill="#FFDA00"/>
<path d="M100 67.0898C100 77.4805 91.543 85.9375 81.1523 85.9375H44.6289V78.125H81.1523C87.2461 78.125 92.1875 73.1836 92.1875 67.0898C92.1875 60.9961 87.2461 56.0547 81.1523 56.0547H18.8477C8.45703 56.0547 0 47.5977 0 37.207C0 26.8164 8.45703 18.3594 18.8477 18.3594H73.0859C74.5898 14.9023 78.0273 12.5 82.0312 12.5C87.4219 12.5 91.7969 16.875 91.7969 22.2656C91.7969 27.6562 87.4219 32.0312 82.0312 32.0312C81.3672 32.0312 80.7031 31.9727 80.0781 31.8359C79.3945 31.6992 76.7773 30.5273 76.1719 30.0781C74.8242 29.0625 73.75 27.7344 73.0859 26.1719H18.8477C12.7539 26.1719 7.8125 31.1133 7.8125 37.207C7.8125 43.3008 12.7539 48.2422 18.8477 48.2422H81.1523C91.543 48.2422 100 56.6992 100 67.0898Z" fill="#007FB6"/>
<path d="M15.625 15.8203C11.3086 15.8203 7.8125 19.3164 7.8125 23.6328C7.8125 27.9492 11.3086 31.4453 15.625 31.4453C19.9414 31.4453 23.4375 27.9492 23.4375 23.6328C23.4375 19.3164 19.9414 15.8203 15.625 15.8203ZM80.0781 60.7422C84.3945 60.7422 87.8906 57.2461 87.8906 52.9297C87.8906 48.6133 84.3945 45.1172 80.0781 45.1172C75.7617 45.1172 72.2656 48.6133 72.2656 52.9297C72.2656 57.2461 75.7617 60.7422 80.0781 60.7422ZM80.0781 74.2188C75.7617 74.2188 72.2656 77.7148 72.2656 82.0312C72.2656 86.3477 75.7617 89.8438 80.0781 89.8438C84.3945 89.8438 87.8906 86.3477 87.8906 82.0312C87.8906 77.7148 84.3945 74.2188 80.0781 74.2188ZM46.875 13.8672C42.5586 13.8672 39.0625 17.3633 39.0625 21.6797C39.0625 25.9961 42.5586 29.4922 46.875 29.4922C51.1914 29.4922 54.6875 25.9961 54.6875 21.6797C54.6875 17.3633 51.1914 13.8672 46.875 13.8672ZM46.875 74.2188C42.5586 74.2188 39.0625 77.7148 39.0625 82.0312C39.0625 86.3477 42.5586 89.8438 46.875 89.8438C51.1914 89.8438 54.6875 86.3477 54.6875 82.0312C54.6875 77.7148 51.1914 74.2188 46.875 74.2188Z" fill="#63E2F7"/>
<path d="M49.6875 22.168L45.8203 24.668C45.4297 24.9219 44.9219 24.6485 44.9219 24.1797V19.1797C44.9219 18.711 45.4297 18.4375 45.8203 18.6914L49.6875 21.1914C50.0391 21.4258 50.0391 21.9336 49.6875 22.168ZM49.6875 82.5195L45.8203 85.0195C45.4297 85.2734 44.9219 85 44.9219 84.5313V79.5508C44.9219 79.082 45.4297 78.8086 45.8203 79.0625L49.6875 81.5625C50.0391 81.7774 50.0391 82.2852 49.6875 82.5195ZM77.0508 52.4414L80.918 49.9414C81.3086 49.6875 81.8164 49.961 81.8164 50.4297V55.4102C81.8164 55.8789 81.3086 56.1524 80.918 55.8985L77.0508 53.3985C76.6992 53.1836 76.6992 52.6758 77.0508 52.4414Z" fill="white"/>
<path d="M80.0781 9.96094V31.8359C78.6328 31.543 77.3047 30.9375 76.1719 30.0781V9.96094H80.0781Z" fill="#845044"/>
<path d="M99.8047 1.5625L95.1172 7.8125L99.8047 14.0625C100.293 14.707 99.8242 15.625 99.0235 15.625H76.1719V0.976562C76.1719 0.429688 76.6016 0 77.1484 0H99.0235C99.8242 0 100.293 0.917969 99.8047 1.5625Z" fill="#FB4444"/>
<path d="M80.0781 15.625H76.1719V0.976562C76.1719 0.429688 76.6016 0 77.1484 0H80.0781V15.625Z" fill="#FC3030"/>
<path d="M22.4805 53.0664H20.7617C19.707 53.0664 18.8477 52.207 18.8477 51.1523C18.8477 50.0977 19.707 49.2383 20.7617 49.2383H22.4805C22.8516 49.2383 23.2031 49.0234 23.3398 48.6914C25 44.668 28.8867 42.0703 33.2422 42.0703C34.2969 42.0703 35.1563 42.9297 35.1563 43.9844C35.1563 45.0391 34.2969 45.8984 33.2422 45.8984C30.4492 45.8984 27.9297 47.5781 26.8555 50.1562C26.1328 51.9141 24.4141 53.0664 22.4805 53.0664Z" fill="#D2D3D9"/>
<path d="M55.1367 73.2422H11.3281C9.53125 73.2422 7.96875 72.3047 7.08984 70.8984V90.8789C7.08984 92.7344 8.59375 94.2188 10.4297 94.2188H56.0352C57.8906 94.2188 59.375 92.7148 59.375 90.8789V70.918C58.4961 72.3047 56.9336 73.2422 55.1367 73.2422Z" fill="#5B3631"/>
<path d="M27.3047 80.2344H39.1602C40.7812 80.2344 42.1289 78.9063 42.1289 77.2656V73.2422H24.3359V77.2656C24.3555 78.9063 25.6836 80.2344 27.3047 80.2344Z" fill="#49332F"/>
<path d="M13.7695 73.2422H20.0391V94.2383H13.7695V73.2422Z" fill="#845044"/>
<path d="M46.4453 73.2422H52.7148V94.2383H46.4453V73.2422Z" fill="#845044"/>
<path d="M55.1367 52.9297H31.2891C29.3945 53.7109 28.0469 55.5859 28.0469 57.7539V69.1211C28.0469 71.3086 29.375 73.1641 31.2891 73.9453H55.1367C57.9102 73.9453 60.1758 71.6992 60.1758 68.9062V57.9492C60.1758 55.1953 57.9297 52.9297 55.1367 52.9297Z" fill="#845044"/>
<path d="M28.2422 68.9258V57.9687C28.2422 55.1953 30.4883 52.9297 33.2813 52.9297H11.3281C8.55469 52.9297 6.28906 55.1758 6.28906 57.9687V68.9258C6.28906 71.6992 8.53516 73.9648 11.3281 73.9648H33.2617C30.4883 73.9453 28.2422 71.6992 28.2422 68.9258Z" fill="#6B433C"/>
<path d="M20.0391 78.6719V53.2812C20.0391 51.543 18.6328 50.1367 16.8945 50.1367C15.1562 50.1367 13.75 51.543 13.75 53.2812V78.6719C13.75 80.4102 15.1562 81.8164 16.8945 81.8164C18.6328 81.7969 20.0391 80.3906 20.0391 78.6719Z" fill="#B26E5F"/>
<path d="M52.7148 78.6719V53.2812C52.7148 51.543 51.3086 50.1367 49.5703 50.1367C47.832 50.1367 46.4258 51.543 46.4258 53.2812V78.6719C46.4258 80.4102 47.832 81.8164 49.5703 81.8164C51.3086 81.7969 52.7148 80.3906 52.7148 78.6719Z" fill="#B26E5F"/>
<path d="M18.1055 77.2266H15.7031C13.7891 77.2266 12.207 75.6641 12.207 73.7305V71.3281C12.207 69.4141 13.7695 67.832 15.7031 67.832H18.1055C20.0195 67.832 21.6016 69.3945 21.6016 71.3281V73.7305C21.582 75.6641 20.0195 77.2266 18.1055 77.2266ZM15.7031 69.9023C14.9023 69.9023 14.2578 70.5469 14.2578 71.3477V73.75C14.2578 74.5508 14.9023 75.1953 15.7031 75.1953H18.1055C18.9062 75.1953 19.5508 74.5508 19.5508 73.75V71.3477C19.5508 70.5469 18.9062 69.9023 18.1055 69.9023H15.7031Z" fill="#D2D3D9"/>
<path d="M20.0391 73.5547H13.7695C13.2031 73.5547 12.7539 73.1055 12.7539 72.5391C12.7539 71.9727 13.2031 71.5234 13.7695 71.5234H20.0391C20.6055 71.5234 21.0547 71.9727 21.0547 72.5391C21.0547 73.1055 20.6055 73.5547 20.0391 73.5547Z" fill="#EFEEEF"/>
<path d="M50.7813 77.2266H48.3789C46.4648 77.2266 44.8828 75.6641 44.8828 73.7305V71.3281C44.8828 69.4141 46.4453 67.832 48.3789 67.832H50.7813C52.6953 67.832 54.2773 69.3945 54.2773 71.3281V73.7305C54.2578 75.6641 52.6953 77.2266 50.7813 77.2266ZM48.3789 69.9023C47.5781 69.9023 46.9336 70.5469 46.9336 71.3477V73.75C46.9336 74.5508 47.5781 75.1953 48.3789 75.1953H50.7813C51.582 75.1953 52.2266 74.5508 52.2266 73.75V71.3477C52.2266 70.5469 51.582 69.9023 50.7813 69.9023H48.3789Z" fill="#D2D3D9"/>
<path d="M52.7148 73.5547H46.4453C45.8789 73.5547 45.4297 73.1055 45.4297 72.5391C45.4297 71.9727 45.8789 71.5234 46.4453 71.5234H52.7148C53.2812 71.5234 53.7305 71.9727 53.7305 72.5391C53.7305 73.1055 53.2812 73.5547 52.7148 73.5547Z" fill="#EFEEEF"/>
<path d="M45.7227 53.0664H44.0039C42.0703 53.0664 40.3516 51.9336 39.6289 50.1758C38.5547 47.5781 36.0547 45.918 33.2422 45.918C32.1875 45.918 31.3281 45.0586 31.3281 44.0039C31.3281 42.9492 32.1875 42.0898 33.2422 42.0898C37.5977 42.0898 41.4844 44.6875 43.1445 48.7109C43.2812 49.043 43.6133 49.2578 44.0039 49.2578H45.7227C46.7773 49.2578 47.6367 50.1172 47.6367 51.1719C47.6172 52.207 46.7578 53.0664 45.7227 53.0664Z" fill="#EFEEEF"/>
</svg>
