<svg width="96" height="101" viewBox="0 0 96 101" fill="none" xmlns="http://www.w3.org/2000/svg">
<path d="M95.0451 52.955C95.0451 78.9237 73.9883 100 48.0001 100C22.0118 100 0.955078 78.9432 0.955078 52.955C0.955078 26.9863 22.0118 5.90997 48.0001 5.90997C73.9883 5.90997 95.0451 26.9863 95.0451 52.955Z" fill="#63E2F7"/>
<path d="M32.2661 81.409C32.2661 81.409 26.4736 79.7065 26.2583 79.6478C25.9648 80.4697 25.2407 82.5049 24.7515 83.8552C24.5949 84.3053 24.047 84.4619 23.6556 84.1879L21.9922 82.955H18.8219L18.8023 82.9354V82.955L17.1389 84.1879C16.7475 84.4619 16.1996 84.3053 16.043 83.8552L14.5362 79.6478C14.3209 79.7065 11.8552 80.4305 10.1331 80.9394C14.6145 86.9863 20.5049 91.9178 27.3151 95.2446H36.5714C36.5714 95.2446 34.8689 84.7554 34.8102 84.4227C34.3992 82.0744 32.2661 81.409 32.2661 81.409Z" fill="white"/>
<path d="M12.0118 64.3444V63.1311C12.0118 62.6027 12.6772 62.5636 12.6772 62.5636C17.1195 62.3875 22.1684 60.5284 24.1449 59.7652C24.6537 59.5695 25.2212 59.6477 25.7105 60.0196L28.4502 62.2896C28.4502 62.2896 28.822 62.6223 28.822 63.229V64.3836C29.5656 64.3248 30.4071 64.5597 30.8572 64.9706V61.4873C30.8572 55.7338 26.1606 51.0372 20.4071 51.0372C14.6537 51.0372 9.95703 55.7338 9.95703 61.4873V64.9511C10.4463 64.5401 11.2682 64.2857 12.0118 64.3444Z" fill="#5B3631"/>
<path d="M13.9687 62.4657V61.4873C13.9687 56.3992 17.6087 52.1722 22.4227 51.2329C21.777 51.1154 21.1116 51.0372 20.4267 51.0372C14.6732 51.0372 9.97656 55.7143 9.97656 61.4873V64.9511C10.4462 64.5401 11.2877 64.2857 12.0118 64.3444V63.1311C12.0118 62.6027 12.6771 62.5636 12.6771 62.5636C13.1077 62.5245 13.5382 62.5049 13.9687 62.4657Z" fill="#49332F"/>
<path d="M11.9336 63.8356C10.5442 63.7378 9.31128 64.7554 9.31128 66.0078C9.31128 67.2603 10.5442 68.2779 11.9336 68.18V63.8356Z" fill="#EFAD7D"/>
<path d="M28.9199 63.8944V68.1409C30.3094 68.2779 31.5422 67.2407 31.5422 66.0079C31.5422 64.775 30.3094 63.7574 28.9199 63.8944Z" fill="#EFAD7D"/>
<path d="M9.56568 65.049C9.40913 65.3425 9.31128 65.6556 9.31128 66.0079C9.31128 67.2603 10.5442 68.2779 11.9336 68.1801V66.2623C10.916 66.3405 9.99621 65.8317 9.56568 65.049Z" fill="#DD925F"/>
<path d="M28.9199 66.2231V68.1409C30.3094 68.2779 31.5422 67.2407 31.5422 66.0079C31.5422 65.6752 31.4444 65.3425 31.2878 65.049C30.8377 65.8122 29.918 66.321 28.9199 66.2231Z" fill="#DD925F"/>
<path d="M24.0274 78.1213L22.0117 82.9354L23.6751 84.1683C24.0665 84.4618 24.5949 84.2857 24.771 83.8356L26.2779 79.6282L24.0274 78.1213Z" fill="#EFEEEF"/>
<path d="M20.8182 76.6928C19.37 76.7515 18.0002 76.4579 16.7869 75.8708V78.1213C17.0021 78.6106 16.0237 76.3405 18.8221 82.9354H21.9923L24.008 78.1213C24.008 77.5147 24.008 76.6341 24.008 75.91C23.0491 76.3601 21.9728 76.6341 20.8182 76.6928Z" fill="#EFAD7D"/>
<path d="M18.8025 77.4951V76.5362C18.098 76.3992 17.4326 76.184 16.8064 75.8708V78.1213C17.0217 78.6106 16.0432 76.3405 18.8416 82.9354H20.8377C20.8377 82.9159 19.0373 78.6693 19.0373 78.6889C18.8808 78.317 18.8025 77.9061 18.8025 77.4951Z" fill="#DD925F"/>
<path d="M18.8417 82.9354L18.0393 83.5225L19.2722 85.636H21.5618L22.7947 83.5029L22.0119 82.9354C20.1137 82.9354 20.779 82.9354 18.8417 82.9354Z" fill="#FFDA00"/>
<path d="M28.6263 62.0352L25.7105 59.7652C25.2212 59.3933 24.6537 59.3151 24.1449 59.5108C22.1684 60.274 16.9629 62.1331 12.5011 62.3092C12.5011 62.3092 11.8357 62.3483 11.8357 62.8767V68.2583C11.8357 73.1703 15.9061 77.182 20.8181 76.9472C25.3582 76.7319 28.9786 72.9746 28.9786 68.3757V62.9746C28.9981 62.3483 28.6263 62.0352 28.6263 62.0352Z" fill="#FCC292"/>
<path d="M13.9492 68.2583V62.1918C13.46 62.2505 12.9707 62.2896 12.5011 62.3092C12.5011 62.3092 11.8357 62.3483 11.8357 62.8767V68.2583C11.8357 73.1702 15.9061 77.182 20.8181 76.9472C21.0333 76.9276 21.2486 76.908 21.4834 76.8884C17.2564 76.3405 13.9492 72.6614 13.9492 68.2583Z" fill="#EFAD7D"/>
<path d="M16.8064 78.1213L18.8221 82.9354L17.1586 84.1683C16.7673 84.4618 16.2193 84.2857 16.0628 83.8356L14.5559 79.6282L16.8064 78.1213Z" fill="#EFEEEF"/>
<path d="M20.8377 82.9354C20.2702 82.9354 20.1919 82.9354 18.8417 82.9354L18.0393 83.5225L19.2722 85.636H21.0921C19.8397 85.2446 19.6831 83.5421 20.8377 82.9354Z" fill="#FFC000"/>
<path d="M18.6851 89.4325L18.646 89.7065C19.8984 90.7241 21.2292 91.6634 22.5795 92.544L22.1294 89.4716C21.327 90.7828 19.4288 90.7436 18.6851 89.4325Z" fill="#FF5252"/>
<path d="M75.5931 51.0372C69.2722 51.0372 64.1646 56.1448 64.1646 62.4657V75.3033C64.1646 76.1252 64.8299 76.8102 65.6714 76.8102H85.5344C86.3563 76.8102 87.0413 76.1448 87.0413 75.3033V62.4657C87.0217 56.1448 81.8945 51.0372 75.5931 51.0372Z" fill="#5B3631"/>
<path d="M72.1489 73.1115C71.0726 73.1115 70.2115 72.2505 70.2115 71.1742V62.6419C70.2115 57.3581 73.7536 52.7984 78.6264 51.4481C77.6675 51.1742 76.6499 51.0372 75.5931 51.0372C69.2722 51.0372 64.1646 56.1448 64.1646 62.4657V75.3033C64.1646 76.1252 64.8299 76.8102 65.6714 76.8102H73.1078V74.0509C73.0882 73.5225 72.6577 73.1115 72.1489 73.1115Z" fill="#49332F"/>
<path d="M79.4875 76.8102V74.7749C78.4307 75.3425 77.2565 75.6947 75.9845 75.7534C74.4385 75.8317 72.9708 75.4599 71.6988 74.7554V76.8102L68.4894 79.4912C65.9454 80.1565 62.6186 80.9785 62.599 80.9785C61.7575 81.2916 60.2311 82.1331 59.8202 84.2074C59.7419 84.5792 58.5286 95.2446 58.5286 95.2446H68.646C75.6714 91.8199 81.6988 86.6732 86.2194 80.3914C85.1235 80.1174 83.8319 79.7847 82.6969 79.4912L79.4875 76.8102Z" fill="white"/>
<path d="M18.6262 89.6869C19.8787 90.7045 21.2094 91.6438 22.5597 92.5244L21.5421 85.636C20.7397 85.636 20.0548 85.636 19.2524 85.636L18.6262 89.6869Z" fill="#FFDA00"/>
<path d="M79.4873 76.8102L75.593 82.0352C76.7672 85.1272 81.2095 84.9119 82.0901 81.7221L82.6967 79.4912L79.4873 76.8102Z" fill="#EFEEEF"/>
<path d="M71.6986 76.8102L75.593 82.0352C74.4188 85.1272 69.9765 84.9119 69.0959 81.7221L68.4893 79.4912L71.6986 76.8102Z" fill="#D2D3D9"/>
<path d="M75.5931 86.4775C74.732 86.4775 74.0471 87.1624 74.0471 88.0235V92.133C75.1039 91.4285 76.141 90.6849 77.1391 89.9021V88.043C77.1391 87.182 76.4346 86.4775 75.5931 86.4775Z" fill="#EFEEEF"/>
<path d="M70.2115 94.4423C69.507 90.137 68.646 84.8533 68.5873 84.5793C67.9415 81.272 64.9082 80.2936 64.9082 80.2936C64.9082 80.2936 56.6694 77.867 56.3563 77.7691C55.9454 78.9237 54.9082 81.8396 54.2233 83.7769C53.9884 84.4227 53.2056 84.6576 52.6773 84.2466L50.3094 82.4853H45.7888L45.7693 82.4658V82.4853L43.4013 84.2466C42.8534 84.6576 42.0706 84.4227 41.8554 83.7769L39.6831 77.7691C39.233 77.9061 31.1117 80.2936 31.1117 80.2936C29.9963 80.7045 27.9806 81.82 27.4327 84.5793L25.7888 94.4423C39.6049 101.859 56.3563 101.859 70.2115 94.4423Z" fill="white"/>
<path d="M56.3563 77.7691C55.9453 78.9237 54.9081 81.8396 54.2232 83.7769C54.1841 83.8943 54.1254 84.0118 54.0471 84.09L52.188 99.8239C58.6655 99.2564 64.7712 97.3777 70.231 94.4423C69.5265 90.137 68.6655 84.8533 68.6068 84.5793C67.961 81.272 64.9277 80.2936 64.9277 80.2936C64.9277 80.2936 56.6694 77.8474 56.3563 77.7691Z" fill="#176496"/>
<path d="M31.053 80.2936C31.053 80.2936 28.0198 81.272 27.374 84.5793C27.3153 84.8728 26.4542 90.1174 25.7693 94.4227C31.2292 97.3581 37.3348 99.2368 43.8123 99.8239L41.9532 84.09C41.875 83.9922 41.8163 83.8943 41.7771 83.7769C41.0922 81.8396 40.1333 78.9433 39.7223 77.7691C39.3896 77.8474 31.053 80.2936 31.053 80.2936Z" fill="#176496"/>
<path d="M31.0139 83.2094C31.3857 81.3503 32.4816 80.2348 33.4014 79.6086C32.0707 80 31.053 80.2935 31.053 80.2935C31.053 80.2935 28.0198 81.272 27.374 84.5792C27.3153 84.8728 26.4542 90.1174 25.7693 94.4227C26.8456 94.9902 27.9219 95.5381 29.0374 96.0274C29.781 91.3307 30.9552 83.4638 31.0139 83.2094Z" fill="#0A456E"/>
<path d="M53.1665 75.6165L50.2898 82.4853L52.6577 84.2466C53.2056 84.6575 53.9884 84.4227 54.2037 83.7769L56.3368 77.7691L53.1665 75.6165Z" fill="#EFEEEF"/>
<path d="M45.7691 82.4854L44.6145 83.3268L46.3562 86.3405H49.6243L51.3855 83.3073L50.2897 82.4854C47.5695 82.4854 48.548 82.4854 45.7691 82.4854Z" fill="#FB4444"/>
<path d="M51.6401 99.863L49.6244 86.3405C48.4698 86.3405 47.4913 86.3405 46.3563 86.3405L44.3015 99.863C46.7281 100.039 49.1743 100.039 51.6401 99.863Z" fill="#FB4444"/>
<path d="M42.8534 75.6165L45.7496 82.4853L43.3817 84.2466C42.8338 84.6575 42.051 84.4227 41.8357 83.7769L39.6831 77.7691L42.8534 75.6165Z" fill="#EFEEEF"/>
<path d="M58.2546 86.2818L56.3563 77.7691L53.1665 75.6165L51.7966 86.4775L54.8103 89.7652L58.0002 87.0059C58.2154 86.8102 58.2937 86.5362 58.2546 86.2818Z" fill="#182F4D"/>
<path d="M37.7653 86.2818L39.6831 77.7691L42.8534 75.6165L44.2233 86.4775L41.2096 89.7652L38.0197 87.0059C37.824 86.8102 37.7262 86.5362 37.7653 86.2818Z" fill="#182F4D"/>
<path d="M33.8709 88.8258C33.0099 88.8258 32.325 89.5107 32.325 90.3718V97.319C33.3426 97.6712 34.3602 98.0039 35.4169 98.2974V90.3718C35.4169 89.5107 34.732 88.8258 33.8709 88.8258Z" fill="#0A456E"/>
<path d="M62.0902 88.8258C61.2291 88.8258 60.5442 89.5107 60.5442 90.3718V98.2974C61.5814 98.0039 62.6186 97.6908 63.6362 97.3385V90.3718C63.6166 89.5107 62.9317 88.8258 62.0902 88.8258Z" fill="#0A456E"/>
<path d="M79.4874 76.8102V74.364C78.4306 74.9315 77.2565 75.2838 75.9844 75.3425C74.4385 75.4207 72.9707 75.0489 71.6987 74.3444V76.8102L75.5931 82.0352L79.4874 76.8102Z" fill="#EFAD7D"/>
<path d="M74.869 77.5734C74.4972 77.0841 74.3015 76.4775 74.3015 75.8708V75.2446C73.3817 75.0881 72.5011 74.7749 71.6987 74.3444V76.8102L75.5931 82.0352L76.9042 80.2935L74.869 77.5734Z" fill="#DD925F"/>
<path d="M83.0883 63.3268C81.6206 62.0744 80.9748 60.4892 80.7595 59.7652C80.6617 59.4325 80.3877 59.1585 80.0354 59.0607H80.0159C79.5658 58.9432 79.0961 59.1781 78.8613 59.5695C78.8613 59.5695 75.3975 66.1644 67.5501 67.2603C67.4718 67.2798 67.3936 67.3386 67.3936 67.4364C67.3936 72.0352 71.1313 75.8708 75.7302 75.773C80.1724 75.6947 83.7536 72.0548 83.7536 67.593V64.775C83.7732 64.2074 83.5188 63.6791 83.0883 63.3268Z" fill="#FCC292"/>
<path d="M70.2115 67.5734V66.634C69.3896 66.908 68.509 67.1233 67.5696 67.2407C67.4914 67.2603 67.4131 67.319 67.4131 67.4168C67.4131 72.0156 71.1509 75.8512 75.7497 75.7534C76.1802 75.7534 76.5912 75.7143 76.9826 75.636C73.1274 74.9706 70.2115 71.6242 70.2115 67.5734Z" fill="#EFAD7D"/>
<path d="M36.0039 55.9883V54.2466C36.0039 53.4834 36.9629 53.4442 36.9629 53.4442C43.3034 53.1898 50.4854 50.5479 53.3034 49.4716C54.0274 49.1976 54.8493 49.2955 55.5343 49.8434L59.4482 53.0333C59.4482 53.0333 59.9766 53.5029 59.9766 54.3836V56.0274C61.0333 55.9295 62.227 56.2818 62.8924 56.8689V51.8982C62.8924 43.6791 56.2192 37.0059 48 37.0059C39.7809 37.0059 33.1077 43.6791 33.1077 51.8982V56.8493C33.7535 56.2622 34.9668 55.91 36.0039 55.9883Z" fill="#5B3631"/>
<path d="M35.8867 55.2642C33.8906 55.1077 32.1489 56.5754 32.1489 58.3562C32.1489 60.137 33.8906 61.6047 35.8867 61.4482V55.2642Z" fill="#EFAD7D"/>
<path d="M60.094 55.3229V61.3894C62.0901 61.5656 63.8318 60.1174 63.8318 58.3562C63.8318 56.5949 62.0705 55.1468 60.094 55.3229Z" fill="#EFAD7D"/>
<path d="M59.6832 52.681L55.5345 49.4521C54.83 48.9041 54.0276 48.8063 53.3035 49.0803C50.4855 50.1761 43.0491 52.818 36.7282 53.0724C36.7282 53.0724 35.7693 53.1311 35.7693 53.8748V61.546C35.7693 68.5519 41.5814 74.2466 48.5677 73.9335C55.0452 73.6399 60.2116 68.2779 60.2116 61.7221V54.0313C60.2116 53.1507 59.6832 52.681 59.6832 52.681Z" fill="#FCC292"/>
<path d="M47.8435 29.139C44.6537 29.139 41.6987 28.1213 39.2721 26.3992L33.8905 42.3288C33.6752 42.9746 34.3406 43.5421 34.9472 43.2485L39.3504 41.0763C39.7222 40.9002 40.1723 41.0372 40.368 41.4286L42.5402 45.8317C42.8337 46.4384 43.7144 46.3797 43.9296 45.7339L49.5656 29.0411C48.9981 29.0998 48.4306 29.139 47.8435 29.139Z" fill="#FB4444"/>
<path d="M47.8436 29.139C44.6537 29.139 41.6987 28.1213 39.2721 26.3992L36.689 34.0313C36.7672 33.9922 36.8455 33.9726 36.9238 33.9335C43.323 30.9198 46.9042 36.908 46.9042 36.908L49.5657 29.0411C48.9982 29.0998 48.4306 29.139 47.8436 29.139Z" fill="#FC3030"/>
<path d="M56.4149 26.3992C54.0078 28.1213 51.0333 29.139 47.8435 29.139C47.2564 29.139 46.6889 29.0998 46.1213 29.0411L51.7573 45.7339C51.9726 46.3797 52.8532 46.4384 53.1468 45.8317L55.319 41.4286C55.4951 41.0568 55.9648 40.9002 56.3366 41.0763L60.7397 43.2485C61.3464 43.5421 62.0118 42.9746 61.7965 42.3288L56.4149 26.3992Z" fill="#F9584B"/>
<path d="M58.7632 33.3464L56.4149 26.3992C54.0078 28.1213 51.0333 29.139 47.8435 29.139C47.2564 29.139 46.6889 29.0998 46.1213 29.0411L48.7828 36.908C52.7945 30.5871 58.7632 33.3464 58.7632 33.3464Z" fill="#FB4444"/>
<path d="M47.8435 29.5108C55.9927 29.5108 62.5989 22.9046 62.5989 14.7554C62.5989 6.60621 55.9927 0 47.8435 0C39.6943 0 33.0881 6.60621 33.0881 14.7554C33.0881 22.9046 39.6943 29.5108 47.8435 29.5108Z" fill="#FFEC00"/>
<path d="M61.092 21.2916C58.9003 21.8982 58.1762 20.7045 57.9609 19.863C57.8631 19.5107 57.5304 19.2759 57.1586 19.2955C56.3562 19.3542 55.9453 18.9237 55.73 18.5714C55.5735 18.2779 55.2603 18.1213 54.9277 18.18C52.4619 18.5714 51.4834 17.3581 51.1312 16.634C50.9942 16.3601 50.7202 16.2035 50.4267 16.2035C46.9238 16.3209 45.8866 13.6595 45.6126 12.6223C45.5539 12.3874 45.3778 12.1722 45.1429 12.0939C43.0881 11.3111 42.9903 9.54988 43.1077 8.55183C43.1468 8.19958 42.9511 7.84733 42.6185 7.72992C41.9531 7.47551 41.7965 6.82972 41.777 6.34048C41.777 5.98823 41.503 5.69469 41.1508 5.61641C39.3895 5.22502 39.3308 3.71817 39.4091 3.01367C39.4286 2.91583 39.4091 2.79841 39.3699 2.70056C35.5735 5.36201 33.0881 9.78471 33.0881 14.7749C33.0881 22.9354 39.7026 29.5303 47.8435 29.5303C53.6556 29.5303 58.685 26.1644 61.092 21.2916Z" fill="#FFDA00"/>
<path d="M47.824 24.3836C53.1415 24.3836 57.4522 20.0729 57.4522 14.7554C57.4522 9.43788 53.1415 5.1272 47.824 5.1272C42.5065 5.1272 38.1958 9.43788 38.1958 14.7554C38.1958 20.0729 42.5065 24.3836 47.824 24.3836Z" fill="#FFDA00"/>
<path d="M56.3953 19.1781C56.0627 19.0411 55.8474 18.7867 55.73 18.5519C55.5734 18.2583 55.2603 18.1018 54.9276 18.1605C52.4619 18.5519 51.4834 17.3386 51.1311 16.6145C50.9942 16.3405 50.7202 16.184 50.4266 16.184C46.9237 16.3014 45.8865 13.6399 45.6126 12.6028C45.5538 12.3679 45.3777 12.1527 45.1429 12.0744C43.0881 11.2916 42.9902 9.53036 43.1077 8.53232C43.1468 8.18007 42.9511 7.82782 42.6184 7.7104C42.2857 7.59298 42.09 7.37772 41.9726 7.14288C39.7026 8.90414 38.2349 11.6634 38.2349 14.7554C38.2349 20.0783 42.5401 24.3836 47.863 24.3836C51.5617 24.4032 54.7906 22.2701 56.3953 19.1781Z" fill="#FFC000"/>
<path d="M47.8436 25.6752C41.8162 25.6752 36.9238 20.7828 36.9238 14.7554C36.9238 8.728 41.8162 3.83563 47.8436 3.83563C53.871 3.83563 58.7634 8.728 58.7634 14.7554C58.7634 20.7828 53.871 25.6752 47.8436 25.6752ZM47.8436 6.4188C43.2448 6.4188 39.4874 10.1566 39.4874 14.775C39.4874 19.3934 43.2252 23.1311 47.8436 23.1311C52.4424 23.1311 56.1998 19.3934 56.1998 14.775C56.1998 10.1566 52.4424 6.4188 47.8436 6.4188Z" fill="#FFC000"/>
<path d="M57.1587 19.2955C56.3563 19.3542 55.9454 18.9237 55.7301 18.5715C55.6518 18.4345 55.554 18.3366 55.417 18.2583C54.0863 21.1155 51.19 23.1116 47.8436 23.1116C43.2448 23.1116 39.4874 19.3738 39.4874 14.7554C39.4874 11.9765 40.8573 9.51079 42.9512 7.98437C42.8729 7.86695 42.736 7.7691 42.599 7.7104C41.9336 7.45599 41.7771 6.8102 41.7575 6.32096C41.7575 6.12527 41.6792 5.96871 41.5618 5.83173C38.7634 7.80824 36.9238 11.0763 36.9238 14.7554C36.9238 20.7828 41.8162 25.6752 47.8436 25.6752C52.188 25.6752 55.9258 23.1311 57.687 19.4716C57.55 19.3542 57.3544 19.276 57.1587 19.2955Z" fill="#FFA73E"/>
<path d="M52.638 13.9922C53.1468 13.4834 52.8728 12.6028 52.1487 12.5049L50.1722 12.2114C49.8787 12.1722 49.6438 11.9961 49.5069 11.7417L48.6262 9.94131C48.3131 9.29552 47.3738 9.29552 47.0607 9.94131L46.18 11.7417C46.0626 11.9961 45.8082 12.1722 45.5147 12.2114L43.5382 12.5049C42.8141 12.6028 42.5401 13.4834 43.0489 13.9922L44.4775 15.3816C44.6928 15.5773 44.771 15.8709 44.7319 16.1644L44.3992 18.1409C44.2818 18.8454 45.0254 19.3934 45.6712 19.0607L47.4325 18.1214C47.6869 17.9844 48 17.9844 48.2544 18.1214L50.0157 19.0607C50.6614 19.3934 51.4051 18.8454 51.2877 18.1409L50.955 16.1644C50.9159 15.8904 50.9941 15.5969 51.2094 15.3816L52.638 13.9922Z" fill="#FFC000"/>
<path d="M44.3993 18.1213C44.2818 18.8258 45.0255 19.3738 45.6713 19.0411L47.4325 18.1017C47.6869 17.9647 48 17.9647 48.2544 18.1017L50.0157 19.0411C50.6615 19.3738 51.4051 18.8258 51.2877 18.1213L50.9942 16.4188C50.8376 16.2622 50.6419 16.1644 50.4071 16.1839C46.9041 16.3013 45.867 13.6399 45.593 12.6027C45.5539 12.4462 45.4756 12.3287 45.3582 12.2309L43.5186 12.5049C42.7946 12.6027 42.5206 13.4833 43.0294 13.9921L44.458 15.3816C44.6732 15.5773 44.7515 15.8708 44.7124 16.1644L44.3993 18.1213Z" fill="#FFA73E"/>
<path d="M36.043 55.9883V54.2466C36.043 53.4834 37.002 53.4443 37.002 53.4443C43.3425 53.1899 50.5245 50.548 53.3425 49.4717C54.0665 49.1977 54.8885 49.2955 55.5734 49.8435L59.4677 53.0724C59.4677 53.0724 59.9961 53.5421 59.9961 54.4227V56.0666C61.0528 55.9687 62.2466 56.321 62.9119 56.9081V51.9374C62.9119 43.7182 56.2387 37.045 48.0196 37.045C39.8004 37.045 33.1272 43.7182 33.1272 51.9374V56.8885C33.8121 56.2623 35.0059 55.91 36.043 55.9883Z" fill="#5B3631"/>
<path d="M38.7047 53.3073V51.9178C38.7047 44.6575 43.9297 38.591 50.8182 37.2994C49.918 37.1233 48.9982 37.0255 48.0393 37.0255C39.8202 37.0255 33.147 43.6986 33.147 51.9178V56.8689C33.8123 56.2818 35.0061 55.9296 36.0628 56.0078V54.2662C36.0628 53.5225 37.0217 53.4638 37.0217 53.4638C37.5697 53.4051 38.1176 53.366 38.7047 53.3073Z" fill="#49332F"/>
<path d="M35.9258 55.2642C33.9297 55.1077 32.1685 56.5754 32.1685 58.3562C32.1685 60.137 33.9101 61.6047 35.9258 61.4482V55.2642Z" fill="#EFAD7D"/>
<path d="M60.1331 55.3229V61.3894C62.1291 61.5656 63.8708 60.1174 63.8708 58.3562C63.8708 56.5949 62.1096 55.1468 60.1331 55.3229Z" fill="#EFAD7D"/>
<path d="M32.6381 56.8298C32.3446 57.2799 32.1685 57.8082 32.1685 58.3562C32.1685 60.137 33.9101 61.6047 35.9258 61.4482V58.3953C34.5559 58.5127 33.3035 57.8474 32.6381 56.8298Z" fill="#DD925F"/>
<path d="M60.1331 58.3366V61.3895C62.1291 61.5656 63.8708 60.1174 63.8708 58.3562C63.8708 57.8083 63.6947 57.2799 63.4012 56.8298C62.7554 57.8278 61.5029 58.4736 60.1331 58.3366Z" fill="#DD925F"/>
<path d="M48.6067 73.5616C46.5519 73.6595 44.595 73.229 42.8533 72.407V75.5969C43.1468 76.3014 41.777 73.0528 45.7691 82.4658H50.2897L53.1664 75.5969C53.1664 74.7358 53.1664 73.4638 53.1664 72.4462C51.777 73.092 50.231 73.5029 48.6067 73.5616Z" fill="#EFAD7D"/>
<path d="M46.6302 76.4384C46.3954 75.8904 46.2779 75.3033 46.2779 74.7163V73.4638C45.0646 73.2877 43.91 72.9354 42.8533 72.4266V75.6165C43.1468 76.321 41.777 73.0724 45.7691 82.4853H49.1938C45.6909 74.1879 46.8846 77.045 46.6302 76.4384Z" fill="#DD925F"/>
<path d="M59.7222 52.681L55.5735 49.4521C54.869 48.9041 54.0667 48.8063 53.3426 49.0803C50.5246 50.1761 43.0882 52.818 36.7673 53.0724C36.7673 53.0724 35.8083 53.1311 35.8083 53.8748V61.546C35.8083 68.5519 41.6205 74.2466 48.6068 73.9335C55.0843 73.6399 60.2506 68.2779 60.2506 61.7221V54.0313C60.2506 53.1507 59.7222 52.681 59.7222 52.681Z" fill="#FCC292"/>
<path d="M38.7046 61.546V52.9158C38.0588 52.9941 37.413 53.0333 36.7673 53.0528C36.7673 53.0528 35.8083 53.1115 35.8083 53.8552V61.5264C35.8083 68.5323 41.6205 74.227 48.6068 73.9139C48.9003 73.8943 49.1939 73.8747 49.4678 73.8356C43.4209 73.1311 38.7046 67.8669 38.7046 61.546Z" fill="#EFAD7D"/>
<path d="M49.1938 82.4854C47.8043 82.4854 48.0783 82.4854 45.7691 82.4854L44.6145 83.3268L46.3562 86.3405H49.1938C47.4716 85.636 47.4716 83.1899 49.1938 82.4854Z" fill="#FC3030"/>
<path d="M50.5442 92.4854C49.6636 94.8337 46.3367 94.8728 45.417 92.5245L44.3015 99.863C46.7281 100.059 49.1743 100.059 51.6401 99.863L50.5442 92.4854Z" fill="#FC3030"/>
<path d="M51.7965 86.4775L50.1331 99.9608C51.7378 99.8826 53.3424 99.726 54.8884 99.5107L57.0215 93.4638C57.2172 92.8963 57.0998 92.27 56.6888 91.8199L51.7965 86.4775Z" fill="#0A456E"/>
<path d="M44.2232 86.4775L39.3308 91.8199C38.9198 92.27 38.8024 92.8963 38.9981 93.4638L41.1312 99.5107C42.6967 99.7456 44.2819 99.8826 45.8866 99.9608L44.2232 86.4775Z" fill="#0A456E"/>
<path d="M78.0979 78.6693L75.593 82.0352C76.7672 85.1272 81.2095 84.9119 82.0901 81.7221L82.3445 80.7632C80.7007 82.5636 77.6674 81.1154 78.0979 78.6693Z" fill="#D2D3D9"/>
</svg>
