<svg width="100" height="101" viewBox="0 0 100 101" fill="none" xmlns="http://www.w3.org/2000/svg">
<path d="M12.7734 83.3789C4.82422 74.5312 0 62.832 0 50C0 22.3828 22.3828 0 50 0C77.6172 0 100 22.3828 100 50C100 59.6875 97.2461 68.7305 92.4805 76.4062C92.3242 76.6406 21.6797 69.6094 12.7734 83.3789Z" fill="#0E62A8"/>
<path d="M57.7148 79.1015C57.7148 82.5586 55.1562 85.4101 51.8164 85.8789C51.8359 86.1132 51.8555 86.3672 51.8555 86.6211C51.8555 88.3984 51.1719 90.0195 50.0781 91.2304C50.1367 91.5625 50.1562 91.8945 50.1562 92.2461C50.1562 96.0156 47.0898 99.082 43.3203 99.082H23.7891C20.4297 99.082 17.6367 96.6601 17.0703 93.457H9.86328C6.09375 93.457 3.02734 90.3906 3.02734 86.6211C3.02734 82.8515 6.09375 79.7851 9.86328 79.7851H10.7227C10.7031 79.5703 10.6836 79.3359 10.6836 79.1211C10.6836 75.3515 13.75 72.2851 17.5195 72.2851H50.8789C54.6484 72.2656 57.7148 75.332 57.7148 79.1015Z" fill="#FFDA00"/>
<path d="M35.0391 99.0625H23.7695C20.4102 99.0625 17.6172 96.6406 17.0508 93.4375H9.86328C6.09375 93.4375 3.02734 90.3711 3.02734 86.6016C3.02734 82.832 6.09375 79.7656 9.86328 79.7656H10.7227C10.6836 79.2773 10.6836 78.7695 10.7422 78.2422C11.1523 74.8047 14.1602 72.2656 17.6172 72.2656H28.5547C25.918 73.3008 25.0781 75.8594 25.0781 78.8672C25.0781 79.1016 25.0977 79.3359 25.1172 79.5508H23.2031C19.2969 79.5508 16.1328 82.7148 16.1328 86.6211C16.1328 90.5273 19.2969 93.7109 23.2227 93.7109H28.2812C29.5508 93.7109 30.7031 94.4336 31.2695 95.5664C32.0117 97.168 33.3789 98.418 35.0391 99.0625Z" fill="#FFC000"/>
<path d="M24.8828 49.7461L17.0117 83.2422C16.7578 84.2969 15.8203 85.0586 14.7265 85.0586H11.7773C10.5469 85.0586 9.53123 84.1015 9.43357 82.8906L7.40232 54.1992C7.3242 53.164 7.9492 52.207 8.92576 51.8359L21.7969 47.0117C23.5351 46.3672 25.3125 47.9297 24.8828 49.7461Z" fill="#FC3030"/>
<path d="M37.9102 11.4648C38.6719 11.4648 39.375 11.875 39.7461 12.5586C44.8242 21.7969 47.7539 32.7734 47.7539 44.5508C47.7539 54.082 45.8203 63.0859 42.4023 71.0742H18.6719C15.2539 63.0859 13.3203 54.082 13.3203 44.5508C13.3203 32.7734 16.25 21.7969 21.3281 12.5586C21.6992 11.8945 22.4023 11.4648 23.1641 11.4648H37.9102Z" fill="#EFEEEF"/>
<path d="M47.7539 44.5508C47.7539 54.082 45.8203 63.0859 42.4023 71.0742H25.7422C22.3242 63.0859 20.3906 54.082 20.3906 44.5508C20.3906 32.7734 23.3203 21.7969 28.3984 12.5586C28.7695 11.8945 29.4727 11.4648 30.2344 11.4648H37.9102C38.6719 11.4648 39.375 11.875 39.7461 12.5586C44.8242 21.7969 47.7539 32.7734 47.7539 44.5508Z" fill="white"/>
<path d="M39.8633 71.0938C37.2852 78.3008 34.1406 84.8047 30.5469 90.4297C26.9531 84.8047 23.8086 78.3008 21.2305 71.0938H39.8633Z" fill="#FFEC00"/>
<path d="M34.7461 71.4453C33.5938 74.6875 32.168 77.6367 30.5469 80.1758C28.9258 77.6367 27.5 74.707 26.3477 71.4453H34.7461Z" fill="white"/>
<path d="M39.8438 29.2969C39.8438 34.4336 35.6836 38.6133 30.5273 38.6133C25.3711 38.6133 21.2109 34.4531 21.2109 29.2969C21.2109 24.1406 25.3711 19.9805 30.5273 19.9805C35.6836 19.9805 39.8438 24.1602 39.8438 29.2969Z" fill="#63E2F7"/>
<path d="M39.8437 29.2969C39.8437 30.8594 39.4531 32.3438 38.7695 33.6328C37.4805 34.3164 35.9961 34.707 34.4336 34.707C29.2969 34.707 25.1172 30.5469 25.1172 25.3906C25.1172 23.8281 25.5078 22.3438 26.1914 21.0547C27.4805 20.3711 28.9648 19.9805 30.5273 19.9805C35.6836 19.9805 39.8437 24.1602 39.8437 29.2969Z" fill="#B8F5FF"/>
<path d="M46.8359 70.7031V71.4453C46.8359 72.5195 45.957 73.3984 44.8828 73.3984H16.2109C15.1367 73.3984 14.2578 72.5195 14.2578 71.4453V70.7031C14.2578 69.6289 15.1367 68.75 16.2109 68.75H44.8828C45.957 68.75 46.8359 69.6289 46.8359 70.7031Z" fill="#FB4444"/>
<path d="M52.832 41.0156H88.0859C89.707 41.0156 91.0156 42.3242 91.0156 43.9453V76.4649C91.0156 77.9102 90.5469 79.3164 89.668 80.4492C80.4492 92.4414 65.918 100.137 49.5898 100V44.2578C49.5898 42.4609 51.0352 41.0156 52.832 41.0156Z" fill="white"/>
<path d="M44.7461 41.0156H53.7891C52.168 41.0156 50.8594 42.3242 50.8594 43.9453V100C50.5664 100 50.293 100 50 100C47.207 100 44.4727 99.7656 41.8164 99.3359V43.9453C41.8164 42.3242 43.125 41.0156 44.7461 41.0156Z" fill="#EFEEEF"/>
<path d="M92.4805 54.043V57.2852C92.6172 57.2461 92.7344 57.2266 92.8906 57.2266C93.6914 57.2266 94.3555 57.8906 94.3555 58.6914V64.5508C94.3555 65.3516 93.6914 66.0156 92.8906 66.0156C92.7539 66.0156 92.6172 65.9961 92.4805 65.957V76.3867C91.582 77.832 90.6055 79.2383 89.5508 80.5859V43.9453C89.5508 43.1445 88.8867 42.4805 88.0859 42.4805H44.7461C43.9453 42.4805 43.2813 43.1445 43.2813 43.9453V99.5508C42.3047 99.4141 41.3086 99.2578 40.3516 99.0625V54.043C40.2148 54.082 40.0977 54.1016 39.9414 54.1016C39.1406 54.1016 38.4766 53.4375 38.4766 52.6367V46.7773C38.4766 45.9766 39.1406 45.3125 39.9414 45.3125C40.0781 45.3125 40.2148 45.332 40.3516 45.3711V43.9453C40.3516 41.5234 42.3242 39.5508 44.7461 39.5508H88.0859C90.5078 39.5508 92.4805 41.5234 92.4805 43.9453V45.3711C92.6172 45.332 92.7344 45.3125 92.8906 45.3125C93.6914 45.3125 94.3555 45.9766 94.3555 46.7773V52.6367C94.3555 53.4375 93.6914 54.1016 92.8906 54.1016C92.7344 54.1016 92.5977 54.082 92.4805 54.043ZM69.3359 45.3125H63.4766C62.6758 45.3125 62.0117 45.9766 62.0117 46.7773C62.0117 47.5781 62.6758 48.2422 63.4766 48.2422H69.3359C70.1367 48.2422 70.8008 47.5781 70.8008 46.7773C70.8008 45.9766 70.1562 45.3125 69.3359 45.3125Z" fill="#182F4D"/>
<path d="M21.1523 12.8906C23.75 8.08594 26.9141 3.75 30.5469 0C34.1797 3.75 37.3438 8.08594 39.9414 12.8906H21.1523Z" fill="#FB4444"/>
<path d="M34.082 4.02344C31.8945 6.75781 29.9414 9.72656 28.2227 12.8906H21.1328C23.7305 8.08594 26.8945 3.75 30.5273 0C31.7773 1.26953 32.9492 2.61719 34.082 4.02344Z" fill="#FC3030"/>
<path d="M30.5469 40.0781C24.6094 40.0781 19.7656 35.2539 19.7656 29.2969C19.7656 23.3398 24.5898 18.5156 30.5469 18.5156C36.5039 18.5156 41.3281 23.3398 41.3281 29.2969C41.3281 35.2539 36.4844 40.0781 30.5469 40.0781ZM30.5469 21.4453C26.2305 21.4453 22.6953 24.9609 22.6953 29.2969C22.6953 33.6328 26.2109 37.1484 30.5469 37.1484C34.8828 37.1484 38.3984 33.6328 38.3984 29.2969C38.3984 24.9609 34.8633 21.4453 30.5469 21.4453Z" fill="#FB4444"/>
<path d="M83.9453 58.6719V80.2734C83.9453 81.3477 83.0664 82.2266 81.9922 82.2266H50.8398C49.7656 82.2266 48.8867 81.3477 48.8867 80.2734V58.6719C48.8867 57.5977 49.7656 56.7188 50.8398 56.7188H81.9922C83.0664 56.7188 83.9453 57.5977 83.9453 58.6719Z" fill="#9799A6"/>
<path d="M65.2539 86.8359C65.2539 87.6367 64.5898 88.3008 63.7891 88.3008H50.332C49.5313 88.3008 48.8672 87.6367 48.8672 86.8359C48.8672 86.0352 49.5313 85.3711 50.332 85.3711H63.7891C64.5898 85.3711 65.2539 86.0352 65.2539 86.8359ZM58.6914 91.3477H50.3516C49.5508 91.3477 48.8867 92.0117 48.8867 92.8125C48.8867 93.6133 49.5508 94.2773 50.3516 94.2773H58.6914C59.4922 94.2773 60.1562 93.6133 60.1562 92.8125C60.1562 92.0117 59.4922 91.3477 58.6914 91.3477Z" fill="#9799A6"/>
<path d="M48.8867 73.1641H83.9453V76.0938H48.8867V73.1641ZM48.8867 66.4062H83.9453V63.4766H48.8867V66.4062Z" fill="white"/>
<path d="M78.0273 47.6562C77.2266 47.6562 76.5625 48.3203 76.5625 49.1211V51.8555C76.5625 52.6562 77.2266 53.3203 78.0273 53.3203C78.8281 53.3203 79.4922 52.6562 79.4922 51.8555V49.1211C79.4922 48.3203 78.8477 47.6562 78.0273 47.6562ZM83.8867 45.3125C83.0859 45.3125 82.4219 45.9766 82.4219 46.7773V51.8555C82.4219 52.6562 83.0859 53.3203 83.8867 53.3203C84.6875 53.3203 85.3516 52.6562 85.3516 51.8555V46.7773C85.3516 45.9766 84.707 45.3125 83.8867 45.3125Z" fill="white"/>
<path d="M85.1953 47.6172L80.8789 43.3008C79.8047 44.8047 78.4961 46.1328 76.9727 47.207L81.2891 51.5234L85.1953 47.6172Z" fill="#B26E5F"/>
<path d="M97.0508 63.3789C95.586 64.8438 93.1836 64.8438 91.7188 63.3789L81.1523 52.8125C80.7617 52.4219 80.7617 51.7773 81.1523 51.3867L85.0586 47.4805C85.4492 47.0898 86.0938 47.0898 86.4844 47.4805L97.0508 58.0469C98.5352 59.5117 98.5352 61.8945 97.0508 63.3789Z" fill="#5B3631"/>
<path d="M96.0156 63.3789L85.4492 52.8125C85.0586 52.4219 85.0586 51.7773 85.4492 51.3867L87.9102 48.9258L86.4844 47.5C86.0937 47.1094 85.4492 47.1094 85.0586 47.5L81.1523 51.4063C80.7617 51.7969 80.7617 52.4414 81.1523 52.832L91.7188 63.3985C93.0273 64.7071 95.0586 64.8438 96.5234 63.8281C96.3672 63.6719 96.1914 63.5352 96.0156 63.3789Z" fill="#49332F"/>
<path d="M67.5 50.4101C76.6688 50.4101 84.1016 42.9774 84.1016 33.8086C84.1016 24.6398 76.6688 17.207 67.5 17.207C58.3312 17.207 50.8984 24.6398 50.8984 33.8086C50.8984 42.9774 58.3312 50.4101 67.5 50.4101Z" fill="#FB4444"/>
<path d="M55.8789 33.8086C55.8789 25.4883 62.0117 18.5938 70 17.3828C69.1797 17.2656 68.3594 17.1875 67.5195 17.1875C58.3398 17.1875 50.918 24.6289 50.918 33.7891C50.918 42.9492 58.3594 50.3906 67.5195 50.3906C68.3594 50.3906 69.1992 50.332 70 50.1953C61.9922 49.0234 55.8789 42.1484 55.8789 33.8086Z" fill="#FC3030"/>
<path d="M67.5 45.9766C74.2202 45.9766 79.668 40.5288 79.668 33.8086C79.668 27.0884 74.2202 21.6406 67.5 21.6406C60.7798 21.6406 55.332 27.0884 55.332 33.8086C55.332 40.5288 60.7798 45.9766 67.5 45.9766Z" fill="#B8F5FF"/>
<path d="M60.2539 33.8086C60.2539 27.9297 64.4141 23.0273 69.9609 21.8945C69.1602 21.7383 68.3398 21.6406 67.5 21.6406C60.7813 21.6406 55.332 27.0898 55.332 33.8086C55.332 40.5273 60.7813 45.9766 67.5 45.9766C68.3398 45.9766 69.1602 45.8984 69.9609 45.7227C64.4141 44.5898 60.2539 39.6875 60.2539 33.8086Z" fill="#63E2F7"/>
</svg>
